<?xml version="1.0" encoding="UTF-8"?><svg id="a" xmlns="http://www.w3.org/2000/svg" viewBox="0 0 142.12 191.82"><defs><style>.b{fill:#fff;}</style></defs><path class="b" d="M50.75,10.72c-1.1-5.52-3.44-9.1-7.01-10.72h29.46c-3.57,1.61-5.91,5.23-7.01,10.85V164.66c0,6.97-2.45,13.03-7.34,18.17-4.89,5.15-11.84,8.06-20.85,8.74-1.37,.16-2.77,.25-4.22,.25h-1.27c-6.55,0-12.16-1.27-16.83-3.82-4.68-2.56-8.46-6.41-11.35-11.54-2.89-5.15-4.33-11.54-4.33-19.2v-4.09H11.23c-3.32,1.53-5.57,4.72-6.76,9.58,.42,4.5,1.53,8.41,3.31,11.73,2.3,4.59,5.49,8.09,9.58,10.52,4.08,2.43,8.46,3.64,13.13,3.64s9.27-1.92,13.77-5.75c4.33-3.73,6.5-9.99,6.5-18.74V10.72Z"/><path class="b" d="M142.12,107.5c-.09,11.83-3.58,21.86-10.46,30.11-6.89,8.25-15.65,14.45-26.28,18.62-9.69,3.73-19.73,5.61-30.09,5.61-1.02,0-4.7-.08-11.04-.26-6.34-.16-14.22-2.97-23.65-8.41-2.72-1.53-5.23-3.27-7.53-5.23-5.78-5.02-10.25-11.48-13.39-19.39-2.56-6.89-3.83-13.9-3.83-21.05,0-1.61,.19-4.99,.58-10.13,.38-5.15,2.96-11.33,7.72-18.56,5.87-8.67,14.75-13.95,26.66-15.82V10.71c-1.11-5.52-3.45-9.06-7.02-10.59h21.81v-.12h27.8c10.72,0,18.83,2.7,24.36,8.09,5.54,5.41,8.29,14.05,8.29,25.96,0,5.87-1.17,10.75-3.51,14.66-2.33,3.91-5.48,6.95-9.43,9.12-3.95,2.17-8.43,3.55-13.45,4.15-1.27,.08-2.59,.16-3.96,.26,13.26,1.7,24.22,6.08,32.84,13.13,8.63,7.06,13.16,17.77,13.59,32.13Zm-91.32,9.32v-51.91c-11.23,1.96-19.55,6.97-25.01,15.05-4.92,7.48-7.4,15.56-7.4,24.23s2.05,16.88,6.12,24.62c5.62,9.78,13.7,16.54,24.24,20.27,6.71,2.38,13.64,3.58,20.78,3.58,4.09,0,10.04-.73,17.86-2.18,7.82-1.44,16.01-5.95,24.56-13.51,8.54-7.57,13.53-17.73,14.98-30.48v-2.04c0-9.78-3.72-18.48-11.15-26.09-7.44-7.61-16.35-12.73-26.73-15.37l-22.83-.38v1.4c5.44,1.87,9.93,4.72,13.45,8.55,3.53,3.82,6.28,7.88,8.23,12.18,1.96,4.29,3.36,8.01,4.21,11.15,.34,1.53,.64,2.77,.9,3.7-.26-.68-.55-1.61-.9-2.8-.85-2.89-2.3-6.38-4.33-10.46s-4.83-8.01-8.35-11.8c-3.53-3.78-7.94-6.61-13.2-8.48v51.03m0-115.3V60.45h28.19c4.5,0,8.14-2,10.91-6,2.76-3.99,4.61-8.88,5.55-14.66,.51-2.9,.77-5.78,.77-8.67s-.37-6.51-1.08-10.85c-.73-4.33-2.53-8.5-5.43-12.5-2.89-3.99-6.8-6-11.73-6h-27.16Z"/></svg>